# AST/ASF file generated using VICON BodyLanguage
# -----------------------------------------------
:version 1.10
:name VICON
:units
  mass 1.0
  length 0.45
  angle deg
:documentation
   .ast/.asf automatically generated from VICON data using
   VICON BodyBuilder and BodyLanguage model FoxedUp or BRILLIANT.MOD
:root
   order TX TY TZ RX RY RZ
   axis XYZ
   position 0 0 0  
   orientation 0 0 0 
:bonedata
  begin
     id 1 
     name lhipjoint
     direction 0.624716 -0.669793 0.401383 
     length 2.38238 
     axis 0 0 0  XYZ
  end
  begin
     id 2 
     name lfemur
     direction 0.34202 -0.939693 0  
     length 6.4574  
     axis 0 0 20  XYZ
    dof rx ry rz
    limits (-160.0 20.0)
           (-70.0 70.0)
           (-60.0 70.0)
  end
  begin
     id 3 
     name ltibia
     direction 0.34202 -0.939693 0   
     length 7.68739   
     axis 0 0 20   XYZ
    dof rx
    limits (-10.0 170.0)
  end
  begin
     id 4 
     name lfoot
     direction 0.0681309 -0.187188 0.979959   
     length 2.46615   
     axis -90 7.62852e-016 20   XYZ
    dof rx rz
    limits (-45.0 90.0)
           (-70.0 20.0)
  end
  begin
     id 5 
     name ltoes
     direction 1.53566e-011 -4.21819e-011 1   
     length 1.2376   
     axis -90 7.62852e-016 20   XYZ
    dof rx
    limits (-90.0 20.0)
  end
  begin
     id 6 
     name rhipjoint
     direction -0.644473 -0.655875 0.393043   
     length 2.43293  
     axis 0 0 0  XYZ 
  end
  begin
     id 7 
     name rfemur
     direction -0.34202 -0.939693 0   
     length 6.7025   
     axis 0 0 -20   XYZ
    dof rx ry rz
    limits (-160.0 20.0)
           (-70.0 70.0)
           (-70.0 60.0)
  end
  begin
     id 8 
     name rtibia
     direction -0.34202 -0.939693 0   
     length 7.80547   
     axis 0 0 -20   XYZ
    dof rx
    limits (-10.0 170.0)
 end
 begin
     id 9 
     name rfoot
     direction -0.0756734 -0.207911 0.975216   
     length 2.40315  
     axis -90 -7.62852e-016 -20   XYZ
    dof rx rz
    limits (-45.0 90.0)
           (-20.0 70.0)
  end
  begin
     id 10 
     name rtoes
     direction -1.5353e-011 -4.21879e-011 1   
     length 1.20477   
     axis -90 -7.62852e-016 -20   XYZ
    dof rx
    limits (-90.0 20.0)
  end
  begin
     id 11 
     name lowerback
     direction 0.0160353 0.987463 -0.157037   
     length 2.18572   
     axis 0 0 0   XYZ
    dof rx ry rz
    limits (-20.0 45.0)
           (-30.0 30.0)
           (-30.0 30.0)
  end
  begin
     id 12 
     name upperback
     direction -0.00499661 0.999756 0.0215076   
     length 2.18016   
     axis 0 0 0   XYZ
    dof rx ry rz
    limits (-20.0 45.0)
           (-30.0 30.0)
           (-30.0 30.0)
  end
  begin
     id 13 
     name thorax
     direction -0.00921346 0.995333 0.0960619   
     length 2.24923   
     axis 0 0 0   XYZ
    dof rx ry rz
    limits (-20.0 45.0)
           (-30.0 30.0)
           (-30.0 30.0)
  end
  begin
     id 14 
     name lowerneck
     direction 0.0274184 0.991181 0.12965   
     length 1.70911   
     axis 0 0 0   XYZ
    dof rx ry rz
    limits (-20.0 45.0)
           (-30.0 30.0)
           (-30.0 30.0)
  end
  begin
     id 15 
     name upperneck
     direction 0.0015627 0.999959 -0.00893559   
     length 1.69312   
     axis 0 0 0   XYZ
    dof rx ry rz
    limits (-20.0 45.0)
           (-30.0 30.0)
           (-30.0 30.0)
  end
  begin
     id 16
     name head
     direction -0.00230242 0.999856 -0.0168327  
     length 1.80241  
     axis 0 0 0   XYZ
    dof rx ry rz
    limits (-20.0 45.0)
           (-30.0 30.0)
           (-30.0 30.0)
  end
  begin
     id 17 
     name lclavicle
     direction 0.955523 0.290741 -0.0494489  
     length 3.84275  
     axis 0 0 0   XYZ
    dof ry rz
    limits (-20.0 10.0)
           (0.0 20.0)
  end
  begin
     id 18 
     name lhumerus
     direction 1 -4.48967e-011 -3.18382e-028   
     length 5.17714   
     axis 180 -30 -90   XYZ
    dof rx ry rz
    limits (-60.0 90.0)
           (-90.0 90.0)
           (-90.0 90.0)
  end
  begin
     id 19
     name lradius
     direction 1 -4.48968e-011 -2.22911e-027   
     length 3.43679   
     axis 180 -30 -90   XYZ
    dof rx
    limits (-10.0 170.0)
  end
  begin
     id 20
     name lwrist
     direction 1 -4.48951e-011 -6.32245e-027   
     length 1.7184   
     axis 3.57107e-015 90 90   XYZ
    dof ry
    limits (-180.0 0.0)
 end
  begin
     id 21 
     name lhand
     direction 1 -4.48924e-011 -1.26431e-026   
     length 0.573117   
     axis 8.06912e-015 90 90   XYZ
    dof rx rz
    limits (-90.0 90.0)
           (-45.0 45.0)
  end
  begin
     id 22 
     name lfingers
     direction 1 -4.49001e-011 -2.52965e-026   
     length 0.462062   
     axis 1.61381e-014 90 90   XYZ
    dof rx
    limits (0.0 90.0)
  end
  begin
     id 23
     name lthumb
     direction 0.707107 -6.35008e-011 0.707107   
     length 0.663431   
     axis -90 45 -1.62303e-014   XYZ
    dof rx rz
    limits (-45.0 45.0)
           (-45.0 45.0)
  end
  begin
     id 24 
     name rclavicle
     direction -0.963917 0.256881 -0.0698287   
     length 3.73057  
     axis 0 0 0   XYZ 
    dof ry rz
    limits (-10.0 20.0)
           (-20.0 0.0)
  end
  begin
     id 25 
     name rhumerus
     direction -1 -4.48962e-011 -2.73982e-027  
     length 5.23908   
     axis 180 30 90   XYZ
    dof rx ry rz
    limits (-90.0 60.0)
           (-90.0 90.0)
           (-90.0 90.0)
  end
  begin
     id 26 
     name rradius
     direction -1 -4.48968e-011 -4.33218e-027   
     length 3.46485   
     axis 180 30 90   XYZ
    dof rx
    limits (-10.0 170.0)
  end
  begin
     id 27 
     name rwrist
     direction -1 -4.48989e-011 -6.32372e-027   
     length 1.73243   
     axis 3.57107e-015 -90 -90   XYZ
    dof ry
    limits (-180.0 0.0)
  end
  begin
     id 28
     name rhand
     direction -1 -4.48948e-011 -1.26448e-026   
     length 0.608752   
     axis 8.06912e-015 -90 -90   XYZ
    dof rx rz
    limits (-90.0 90.0)
           (-45.0 45.0)
  end
  begin
     id 29
     name rfingers
     direction -1 -4.48962e-011 -2.52913e-026   
     length 0.490792   
     axis 1.61381e-014 -90 -90   XYZ
    dof rx
    limits (0.0 90.0)
  end
  begin
     id 30
     name rthumb
     direction -0.707107 -6.34878e-011 0.707107   
     length 0.704682   
     axis -90 -45 1.62303e-014   XYZ
    dof rx rz
    limits (-45.0 45.0)
           (-45.0 45.0)
  end
:hierarchy
  begin
    root lhipjoint rhipjoint lowerback
    lhipjoint lfemur
    lfemur ltibia
    ltibia lfoot
    lfoot ltoes
    rhipjoint rfemur
    rfemur rtibia
    rtibia rfoot
    rfoot rtoes
    lowerback upperback
    upperback thorax
    thorax lowerneck lclavicle rclavicle
    lowerneck upperneck
    upperneck head
    lclavicle lhumerus
    lhumerus lradius
    lradius lwrist
    lwrist lhand lthumb
    lhand lfingers
    rclavicle rhumerus
    rhumerus rradius
    rradius rwrist
    rwrist rhand rthumb
    rhand rfingers
  end

#!OML:ASF G:\JayActor3\Patient Classification 1\Patient 1\Session 6\male.ASF
:FULLY-SPECIFIED
:DEGREES
1
root 5.5772 14.7994 -17.4112 6.78144 -34.381 -5.26176
lowerback 26.5177 -0.918955 -0.0422557
upperback 4.77509 -1.25919 0.755614
thorax -9.37507 -0.641083 1.30102
lowerneck -10.2943 0.348543 3.02409
upperneck 21.871 -0.383758 0.526724
head 8.4975 0.0579087 -0.381036
rclavicle -1.59028e-015 1.86858e-014
rhumerus -36.7488 11.2091 -89.7559
rradius 126.929
rwrist 13.1363
rhand 16.1217 -21.4031
rfingers 7.12502
rthumb 40.9065 -46.3491
lclavicle -1.59028e-015 1.86858e-014
lhumerus -43.9099 -5.29362 91.6604
lradius 134.557
lwrist -0.611212
lhand 1.12172 42.5682
lfingers 7.12502
lthumb 26.6643 70.7102
rfemur -41.388 -10.883 26.4663
rtibia 68.1158
rfoot -29.2776 -11.3107
rtoes -5.34863
lfemur -38.9722 21.2248 -17.6703
ltibia 64.9609
lfoot -28.1471 2.66018
ltoes -8.92085
2
root 5.57753 14.7997 -17.4122 6.77673 -34.3605 -5.24432
lowerback 26.5114 -0.919568 -0.0481378
upperback 4.77211 -1.26328 0.737749
thorax -9.3754 -0.642956 1.28576
lowerneck -10.306 0.339642 3.04086
upperneck 21.8848 -0.401092 0.531128
head 8.5042 0.0517435 -0.384189
rclavicle -2.38542e-015 1.59028e-014
rhumerus -36.7491 11.1813 -89.7644
rradius 126.943
rwrist 13.2205
rhand 16.0651 -21.3547
rfingers 7.12502
rthumb 40.8533 -46.3175
lclavicle -2.38542e-015 1.59028e-014
lhumerus -43.9247 -5.36543 91.6418
lradius 134.593
lwrist -0.595533
lhand 1.15866 42.6041
lfingers 7.12502
lthumb 26.6997 70.7406
rfemur -41.3995 -10.8997 26.4545
rtibia 68.1175
rfoot -29.2828 -11.3023
rtoes -5.35024
lfemur -38.9876 21.2401 -17.6884
ltibia 64.9578
lfoot -28.1481 2.63075
ltoes -8.92357
3
root 5.57706 14.8001 -17.4125 6.78853 -34.3481 -5.26614
lowerback 26.4976 -0.921799 -0.0500182
upperback 4.7745 -1.26568 0.747464
thorax -9.36532 -0.643991 1.29811
lowerneck -10.2982 0.335462 3.02068
upperneck 21.8652 -0.401769 0.530257
head 8.49602 0.0495451 -0.381102
rclavicle 1.39149e-014 -4.37326e-015
rhumerus -36.7444 11.2222 -89.7481
rradius 126.954
rwrist 13.2683
rhand 15.9988 -21.3592
rfingers 7.12502
rthumb 40.791 -46.3416
lclavicle 1.39149e-014 -4.37326e-015
lhumerus -43.9388 -5.40614 91.6597
lradius 134.619
lwrist -0.625639
lhand 1.17035 42.5538
lfingers 7.12502
lthumb 26.7109 70.6887
rfemur -41.3958 -10.9166 26.4804
rtibia 68.1132
rfoot -29.269 -11.3458
rtoes -5.46929
lfemur -38.9903 21.2309 -17.6633
ltibia 64.9608
lfoot -28.1423 2.59913
ltoes -8.83797
4
root 5.577 14.7996 -17.4132 6.77569 -34.3436 -5.25238
lowerback 26.5018 -0.916866 -0.0779578
upperback 4.77208 -1.26746 0.742157
thorax -9.3697 -0.644 1.30901
lowerneck -10.285 0.338158 3.04238
upperneck 21.8403 -0.395846 0.507641
head 8.48514 0.0515944 -0.391659
rclavicle -5.26779e-014 1.39149e-014
rhumerus -36.7349 11.2085 -89.7417
rradius 126.961
rwrist 13.2712
rhand 15.9737 -21.3444
rfingers 7.12502
rthumb 40.7674 -46.3343
lclavicle -5.26779e-014 1.39149e-014
lhumerus -43.9211 -5.42573 91.6753
lradius 134.631
lwrist -0.617374
lhand 1.13018 42.5631
lfingers 7.12502
lthumb 26.6724 70.7038
rfemur -41.393 -10.9273 26.4741
rtibia 68.1131
rfoot -29.2472 -11.3932
rtoes -5.57939
lfemur -38.9869 21.2411 -17.6749
ltibia 64.9573
lfoot -28.1419 2.59995
ltoes -8.87725
5
root 5.57691 14.7997 -17.4138 6.77442 -34.3341 -5.25159
lowerback 26.4964 -0.915722 -0.0915276
upperback 4.77186 -1.26993 0.739642
thorax -9.36693 -0.644789 1.31472
lowerneck -10.28 0.338082 3.04397
upperneck 21.8229 -0.394359 0.502805
head 8.47828 0.0518071 -0.393345
rclavicle -2.16675e-014 4.77083e-015
rhumerus -36.7224 11.2057 -89.734
rradius 126.965
rwrist 13.2827
rhand 15.9435 -21.3335
rfingers 7.12502
rthumb 40.739 -46.3323
lclavicle -2.16675e-014 4.77083e-015
lhumerus -43.9147 -5.45149 91.6859
lradius 134.652
lwrist -0.619408
lhand 1.12379 42.5586
lfingers 7.12502
lthumb 26.6663 70.7002
rfemur -41.3932 -10.9342 26.4764
rtibia 68.1115
rfoot -29.2422 -11.407
rtoes -5.61083
lfemur -38.9892 21.2465 -17.6738
ltibia 64.9551
lfoot -28.1394 2.58239
ltoes -8.87248
6
root 5.57687 14.7997 -17.4143 6.77434 -34.3249 -5.2525
lowerback 26.4907 -0.915181 -0.103901
upperback 4.77186 -1.27278 0.737845
thorax -9.36373 -0.64579 1.32066
lowerneck -10.2757 0.339503 3.04066
upperneck 21.8038 -0.390579 0.501355
head 8.47104 0.0530311 -0.392832
rclavicle 5.52621e-014 -5.40694e-014
rhumerus -36.705 11.2015 -89.7263
rradius 126.967
rwrist 13.2764
rhand 15.9265 -21.3282
rfingers 7.12502
rthumb 40.723 -46.332
lclavicle 5.52621e-014 -5.40694e-014
lhumerus -43.9108 -5.46948 91.6974
lradius 134.672
lwrist -0.619507
lhand 1.11918 42.5439
lfingers 7.12502
lthumb 26.6619 70.6862
rfemur -41.3944 -10.9411 26.4818
rtibia 68.1107
rfoot -29.2325 -11.4385
rtoes -5.69189
lfemur -38.9914 21.2492 -17.6713
ltibia 64.9515
lfoot -28.1349 2.56878
ltoes -8.87215
7
root 5.57684 14.7997 -17.4149 6.77442 -34.3152 -5.25266
lowerback 26.4846 -0.914982 -0.115221
upperback 4.77167 -1.27599 0.733961
thorax -9.36061 -0.647014 1.32378
lowerneck -10.272 0.341778 3.03953
upperneck 21.785 -0.386353 0.501131
head 8.46404 0.0547668 -0.392232
rclavicle -7.59357e-014 3.57812e-014
rhumerus -36.6841 11.1924 -89.7229
rradius 126.964
rwrist 13.2556
rhand 15.9207 -21.3265
rfingers 7.12502
rthumb 40.7176 -46.332
lclavicle -7.59357e-014 3.57812e-014
lhumerus -43.9119 -5.48522 91.7036
lradius 134.693
lwrist -0.614701
lhand 1.11649 42.5223
lfingers 7.12502
lthumb 26.6593 70.6649
rfemur -41.3966 -10.9431 26.4849
rtibia 68.1106
rfoot -29.2336 -11.4522
rtoes -5.71908
lfemur -38.9939 21.2496 -17.67
ltibia 64.9473
lfoot -28.1303 2.56529
ltoes -8.89526
